<svg id="Layer_1" data-name="Layer 1" xmlns="http://www.w3.org/2000/svg" xmlns:xlink="http://www.w3.org/1999/xlink" viewBox="0 0 65.71 25.68"><defs><style>.cls-1{fill:none;}.cls-2{fill:#355ead;}.cls-3{fill:#172233;}.cls-4{fill:#fbbc6c;}.cls-5{fill:#fff;}.cls-6{clip-path:url(#clip-path);}.cls-7{fill:url(#linear-gradient);}.cls-8{clip-path:url(#clip-path-2);}.cls-9{fill:url(#linear-gradient-2);}.cls-10{clip-path:url(#clip-path-3);}.cls-11{fill:url(#linear-gradient-3);}</style><clipPath id="clip-path" transform="translate(1.64 -7.3)"><path class="cls-1" d="M3.26,16.4A3.14,3.14,0,0,0,2,20.33c0,.05,1.09,2.43,4.49.54a42.9,42.9,0,0,0,4-2.74,7.6,7.6,0,0,0-4.92-2.39,4.66,4.66,0,0,0-2.37.66"/></clipPath><linearGradient id="linear-gradient" x1="-466.27" y1="518.59" x2="-466.22" y2="518.59" gradientTransform="matrix(0, 107.44, 107.44, 0, -55709.53, 50110.69)" gradientUnits="userSpaceOnUse"><stop offset="0" stop-color="#73b0df"/><stop offset="0" stop-color="#73b0df"/><stop offset="1" stop-color="#355ead"/></linearGradient><clipPath id="clip-path-2" transform="translate(1.64 -7.3)"><path class="cls-1" d="M15.85,15.75C12.58,15.86,10,19,6.53,20.87c-3.06,1.7-4.23-.06-4.45-.46a9.7,9.7,0,0,0,17.48,1.45A5.88,5.88,0,0,0,20,19.62a3.89,3.89,0,0,0-4-3.88h-.19"/></clipPath><linearGradient id="linear-gradient-2" x1="-466.5" y1="518.13" x2="-466.44" y2="518.13" gradientTransform="matrix(172.75, 0, 0, -172.75, 80593.66, 89527.66)" gradientUnits="userSpaceOnUse"><stop offset="0" stop-color="#4573cb"/><stop offset="0" stop-color="#4573cb"/><stop offset="1" stop-color="#a8dbf6"/><stop offset="1" stop-color="#a8dbf6"/></linearGradient><clipPath id="clip-path-3" transform="translate(1.64 -7.3)"><path class="cls-1" d="M11.6,23.87C9,26.52,6.72,25.65,5.73,25a9.7,9.7,0,0,0,11.78-.71c.58-.51,1.55-2.37.3-3.3a2.12,2.12,0,0,0-1.3-.46c-1.09,0-2.55.86-4.91,3.3"/></clipPath><linearGradient id="linear-gradient-3" x1="-466.61" y1="517.47" x2="-466.55" y2="517.47" gradientTransform="matrix(-137.8, 0, 0, 137.8, -64280.8, -71283.28)" gradientUnits="userSpaceOnUse"><stop offset="0" stop-color="#d1e8f6"/><stop offset="1" stop-color="#b6c5f0"/></linearGradient></defs><title>mecap</title><polygon class="cls-2" points="33.38 2.93 33.38 10.99 31.54 10.99 31.54 6.3 29.45 9.72 29.25 9.72 27.16 6.3 27.16 10.99 25.32 10.99 25.32 2.93 27.16 2.93 29.35 6.51 31.54 2.93 33.38 2.93"/><polygon class="cls-2" points="37.46 9.21 40.69 9.21 40.69 10.99 35.62 10.99 35.62 2.93 40.63 2.93 40.63 4.7 37.46 4.7 37.46 6.04 40.34 6.04 40.34 7.79 37.46 7.79 37.46 9.21"/><path class="cls-2" d="M41.91,17.22a4.25,4.25,0,0,1,0-5.92,4.06,4.06,0,0,1,3-1.21,4,4,0,0,1,3.49,2l-.72.42a3.1,3.1,0,0,0-2.77-1.62,3.42,3.42,0,0,0-2.47,5.79,3.29,3.29,0,0,0,2.47,1A3.09,3.09,0,0,0,47.71,16l.72.4a4,4,0,0,1-3.49,2,4.09,4.09,0,0,1-3-1.2" transform="translate(1.64 -7.3)"/><path class="cls-2" d="M55.86,18.29l-.75-2H51.29l-.75,2h-.85l3.1-8.06h.83l3.09,8.06Zm-4.28-2.74h3.25L53.2,11.23Z" transform="translate(1.64 -7.3)"/><path class="cls-2" d="M61.49,10.23A2.46,2.46,0,0,1,64,12.76a2.46,2.46,0,0,1-2.53,2.53H59.42v3h-.81V10.23Zm0,4.3A1.63,1.63,0,0,0,62.72,14a1.7,1.7,0,0,0,.5-1.28,1.66,1.66,0,0,0-.5-1.26A1.61,1.61,0,0,0,61.49,11H59.42v3.54Z" transform="translate(1.64 -7.3)"/><polygon class="cls-3" points="27.36 14.44 27.36 16.57 27.01 16.57 27.01 15.05 26.36 16.12 26.32 16.12 25.67 15.05 25.67 16.57 25.32 16.57 25.32 14.44 25.7 14.44 26.34 15.5 26.99 14.44 27.36 14.44"/><path class="cls-3" d="M27.53,23.87l-.14-.43h-.91l-.15.43H26l.77-2.13h.42l.77,2.13Zm-.94-.76h.68l-.34-1Z" transform="translate(1.64 -7.3)"/><path class="cls-3" d="M29.36,23.87l-.45-.78h-.42v.78h-.35V21.74H29a.63.63,0,0,1,.49.2.66.66,0,0,1,.2.48.68.68,0,0,1-.42.62l.48.83Zm-.87-1.8v.71H29a.35.35,0,0,0,.34-.36.34.34,0,0,0-.34-.35Z" transform="translate(1.64 -7.3)"/><path class="cls-3" d="M31.4,23.87l-.15-.43h-.91l-.15.43h-.38l.77-2.13H31l.78,2.13Zm-.94-.76h.67l-.34-1Z" transform="translate(1.64 -7.3)"/><polygon class="cls-3" points="34.88 14.44 34.88 14.77 34.28 14.77 34.28 16.57 33.93 16.57 33.93 14.77 33.33 14.77 33.33 14.44 34.88 14.44"/><polygon class="cls-3" points="36.4 14.44 36.76 14.44 36.76 16.57 36.4 16.57 36.4 15.65 35.49 15.65 35.49 16.57 35.14 16.57 35.14 14.44 35.49 14.44 35.49 15.31 36.4 15.31 36.4 14.44"/><path class="cls-3" d="M36.54,23.91a1.09,1.09,0,0,1-1.11-1.11,1.08,1.08,0,0,1,.32-.78,1.06,1.06,0,0,1,.79-.32,1,1,0,0,1,.78.32,1,1,0,0,1,.32.78,1.09,1.09,0,0,1-1.1,1.11m0-.34a.73.73,0,0,0,.53-.22.72.72,0,0,0,.22-.55A.76.76,0,0,0,36,22.26a.74.74,0,0,0-.22.54.76.76,0,0,0,.22.55.74.74,0,0,0,.54.22" transform="translate(1.64 -7.3)"/><polygon class="cls-3" points="40.89 14.44 41.24 14.44 41.24 16.57 40.96 16.57 39.96 15.12 39.96 16.57 39.61 16.57 39.61 14.44 39.88 14.44 40.89 15.88 40.89 14.44"/><polygon class="cls-3" points="42.77 16.23 43.72 16.23 43.72 16.57 42.42 16.57 42.42 14.44 43.7 14.44 43.7 14.77 42.77 14.77 42.77 15.33 43.63 15.33 43.63 15.66 42.77 15.66 42.77 16.23"/><path class="cls-3" d="M43.82,23.87l-.15-.43h-.91l-.15.43h-.38L43,21.74h.42l.77,2.13Zm-.94-.76h.67l-.34-1Z" transform="translate(1.64 -7.3)"/><path class="cls-3" d="M45.64,23.87l-.45-.78h-.42v.78h-.35V21.74h.86a.68.68,0,0,1,.68.68.68.68,0,0,1-.42.62l.48.83Zm-.87-1.8v.71h.51a.35.35,0,0,0,.33-.36.34.34,0,0,0-.33-.35Z" transform="translate(1.64 -7.3)"/><polygon class="cls-3" points="49.21 14.44 49.56 14.44 49.56 16.57 49.29 16.57 48.28 15.12 48.28 16.57 47.93 16.57 47.93 14.44 48.21 14.44 49.21 15.88 49.21 14.44"/><polygon class="cls-3" points="50.34 16.23 51.28 16.23 51.28 16.57 49.99 16.57 49.99 14.44 51.27 14.44 51.27 14.77 50.34 14.77 50.34 15.33 51.19 15.33 51.19 15.66 50.34 15.66 50.34 16.23"/><path class="cls-3" d="M51.18,23.87l-.45-.78h-.42v.78H50V21.74h.86a.62.62,0,0,1,.48.2.66.66,0,0,1,.2.48.68.68,0,0,1-.42.62l.48.83Zm-.87-1.8v.71h.51a.35.35,0,0,0,.33-.36.34.34,0,0,0-.33-.35Z" transform="translate(1.64 -7.3)"/><path class="cls-3" d="M52.8,23.59a1.11,1.11,0,0,1,.8-1.89,1,1,0,0,1,.92.51l-.31.17A.67.67,0,0,0,53.6,22a.74.74,0,0,0-.55.21.77.77,0,0,0-.21.55.74.74,0,0,0,.76.77.68.68,0,0,0,.61-.35l.31.18a1,1,0,0,1-.38.37,1.14,1.14,0,0,1-1.34-.18" transform="translate(1.64 -7.3)"/><path class="cls-3" d="M56.18,23.87,56,23.44h-.91l-.15.43h-.38l.78-2.13h.42l.77,2.13Zm-.94-.76h.68l-.34-1Z" transform="translate(1.64 -7.3)"/><path class="cls-3" d="M57.57,21.74a.68.68,0,0,1,.71.7.7.7,0,0,1-.2.5.73.73,0,0,1-.51.2h-.43v.73h-.35V21.74Zm0,1.07a.35.35,0,0,0,.36-.37.35.35,0,0,0-.36-.37h-.43v.74Z" transform="translate(1.64 -7.3)"/><rect class="cls-3" x="60.23" y="14.44" width="0.35" height="2.13"/><polygon class="cls-3" points="62.39 14.44 62.39 14.77 61.79 14.77 61.79 16.57 61.44 16.57 61.44 14.77 60.84 14.77 60.84 14.44 62.39 14.44"/><path class="cls-3" d="M62.24,23.87l-.14-.43h-.91l-.15.43h-.38l.77-2.13h.42l.77,2.13Zm-.94-.76H62l-.34-1Z" transform="translate(1.64 -7.3)"/><polygon class="cls-3" points="64.84 16.23 65.71 16.23 65.71 16.57 64.49 16.57 64.49 14.44 64.84 14.44 64.84 16.23"/><path class="cls-4" d="M20.86,17a9.7,9.7,0,1,1-9.7-9.7,9.7,9.7,0,0,1,9.7,9.7" transform="translate(1.64 -7.3)"/><path class="cls-5" d="M20.85,16.57c-5-5.36-10.51.21-10.51.21a5.94,5.94,0,0,0-6.16-1.25,3.62,3.62,0,0,0-2.12,4.79s11.74,1.58,17,2.26A9.6,9.6,0,0,0,20.86,17c0-.14,0-.29,0-.43" transform="translate(1.64 -7.3)"/><g class="cls-6"><rect class="cls-7" x="0.91" y="15.48" width="9.83" height="7.53" transform="translate(0.59 -6.95) rotate(-3.15)"/></g><g class="cls-8"><rect class="cls-9" x="2.68" y="10.86" width="16.75" height="20.72" transform="translate(-11.09 16.48) rotate(-68.62)"/></g><g class="cls-10"><rect class="cls-11" x="6.05" y="16.42" width="12.7" height="14.43" transform="translate(-12.42 12.85) rotate(-54.82)"/></g></svg>